<?xml version="1.0" encoding="UTF-8" standalone="no"?>

<svg
   version="1.1"
   id="svg1"
   width="1024"
   height="1024"
   viewBox="0 0 1024 1024"
   sodipodi:docname="newssort_logo.svg"
   inkscape:version="1.4 (86a8ad7, 2024-10-11)"
   xmlns:inkscape="http://www.inkscape.org/namespaces/inkscape"
   xmlns:sodipodi="http://sodipodi.sourceforge.net/DTD/sodipodi-0.dtd"
   xmlns="http://www.w3.org/2000/svg"
   xmlns:svg="http://www.w3.org/2000/svg">
  <defs
     id="defs1" />
  <sodipodi:namedview
     id="namedview1"
     pagecolor="#ffffff"
     bordercolor="#111111"
     borderopacity="1"
     inkscape:showpageshadow="0"
     inkscape:pageopacity="0"
     inkscape:pagecheckerboard="1"
     inkscape:deskcolor="#d1d1d1"
     inkscape:zoom="1"
     inkscape:cx="698.5"
     inkscape:cy="561"
     inkscape:window-width="1838"
     inkscape:window-height="1172"
     inkscape:window-x="-8"
     inkscape:window-y="-8"
     inkscape:window-maximized="1"
     inkscape:current-layer="g1" />
  <g
     inkscape:groupmode="layer"
     inkscape:label="Image"
     id="g1">
    <path
       style="fill:#000000"
       d="m 362.58836,628.25485 c -8.33227,-2.26315 -13.64678,-4.80914 -21.5419,-10.31992 l -5.69494,-3.97505 3.5559,-3.64373 c 4.11033,-4.21187 9.33397,-11.51993 9.33397,-13.05856 0,-0.57996 2.31594,0.6984 5.14654,2.8408 9.21263,6.97278 14.74594,9.20592 23.02301,9.29167 9.27014,0.096 13.83045,-1.9051 13.83045,-6.06902 0,-4.41316 -3.63355,-6.826 -18.09422,-12.01535 -16.9319,-6.07618 -20.95263,-8.15694 -24.83868,-12.85426 -3.82262,-4.62065 -7.39197,-15.47066 -6.49421,-19.74092 0.97217,-4.62413 6.19307,-13.23526 9.41586,-15.53009 4.86322,-3.46292 16.14589,-7.16305 23.51125,-7.71047 13.48387,-1.00217 24.99515,2.91322 33.75,11.47956 2.6125,2.55624 4.75,5.11991 4.75,5.69704 0,0.57713 -2.9532,3.19108 -6.56266,5.80877 l -6.56266,4.75944 -6.68734,-3.24765 c -5.74203,-2.78856 -7.772,-3.25097 -14.36043,-3.27117 -8.69989,-0.0267 -13.08186,2.13592 -13.634,6.72867 -0.42357,3.52325 2.28662,5.20366 14.30709,8.87093 21.85003,6.66611 27.38217,9.87056 31.41209,18.19527 4.55353,9.40633 0.94996,23.36402 -8.01274,31.03576 -8.96319,7.67216 -25.6355,10.5083 -39.55238,6.72828 z m 307.32536,0.54922 c -8.19171,-2.31095 -12.68433,-6.24549 -17.17233,-15.03916 l -4,-7.8375 -0.5,-23.6275 -0.5,-23.6275 -2.75,-0.0625 c -1.5125,-0.0344 -5.68352,-0.14688 -9.26893,-0.25 l -6.51893,-0.1875 0.26893,-9.60338 0.26893,-9.60338 9.37244,0.40495 9.37245,0.40496 -0.68182,-9.28845 -0.68182,-9.28845 3.30938,0.66657 c 1.82015,0.36661 6.76277,0.6982 10.98358,0.73687 l 7.67422,0.0703 0.6723,8 0.67229,8 21.40349,-0.28789 21.40349,-0.28787 v 10.03788 10.03789 l -13.25,0.006 c -7.2875,0.003 -16.9625,0.295 -21.5,0.64822 l -8.25,0.64222 v 18.38391 c 0,19.55634 0.62961,22.95426 4.96945,26.81966 3.29658,2.93619 12.4727,2.74548 16.81927,-0.34956 l 3.21128,-2.28664 v 2.38051 c 0,1.30928 1.34094,6.34754 2.97988,11.19615 1.63893,4.8486 2.75561,9.1785 2.48151,9.622 -0.91848,1.48613 -11.24096,3.94569 -18.63776,4.44086 -4.61267,0.30879 -9.11067,-0.0139 -12.1513,-0.87167 z M 463.226,627.29944 c -10.19067,-3.26192 -23.90825,-14.27516 -28.25545,-22.68504 -5.8709,-11.35756 -8.12548,-31.34328 -4.33662,-38.44199 1.02745,-1.925 2.76342,-5.27747 3.85771,-7.44994 3.26093,-6.47381 12.40909,-14.78954 20.74975,-18.86164 24.98829,-12.19984 54.43237,-2.27767 65.17344,21.96238 2.70482,6.10413 3.66948,21.5839 1.8372,29.48132 -5.24679,22.61454 -23.811,37.96558 -45.72909,37.8141 -4.5412,-0.0314 -10.07824,-0.78892 -13.29694,-1.81919 z m 21.39747,-21.21608 c 5.72065,-1.58839 13.12539,-8.97861 15.58615,-15.55559 2.16007,-5.77331 2.70179,-15.46287 1.10003,-19.67583 -1.26734,-3.33334 -7.6993,-9.43896 -12.56542,-11.92789 -10.1801,-5.20693 -25.30718,-1.21151 -32.30359,8.53214 -2.80083,3.90062 -3.52939,5.95989 -3.94635,11.15436 -0.67621,8.42418 0.16173,12.33522 3.82903,17.87184 5.6362,8.50911 17.60661,12.57013 28.30015,9.60097 z m 60.30573,-5.61003 c 0.20687,-15.2905 0.81174,-32.77475 1.34416,-38.85387 0.53242,-6.07913 0.96803,-14.12779 0.96803,-17.88593 v -6.83297 l 4.63957,0.63593 c 2.55177,0.34975 6.82677,0.63592 9.5,0.63592 h 4.86043 l 0.0703,3.75 c 0.0386,2.0625 0.4156,4.63316 0.83765,5.71258 0.72091,1.84375 0.87464,1.79887 2.53888,-0.74108 2.14185,-3.26887 11.73161,-8.10288 20.41659,-10.29159 6.53526,-1.64697 13.62665,-1.13822 20.38659,1.46257 l 2.75,1.05802 v 11.09214 c 0,10.09926 -0.15664,11.04467 -1.75,10.56191 -9.41913,-2.85388 -23.26147,-3.46392 -28.53212,-1.25742 -4.00948,1.67852 -10.16593,8.39609 -12.23659,13.35189 -1.89205,4.52832 -3.42774,22.90803 -3.4586,41.39381 l -0.0227,13.59282 -11.34416,0.2081 -11.34416,0.2081 z m -204.4026,-82.04482 -5.21479,-0.35818 0.60761,-3.19896 c 0.33418,-1.75943 1.17526,-4.32396 1.86905,-5.69896 2.13571,-4.23267 8.61609,-9.96685 12.42207,-10.99169 2.26384,-0.60959 67.80624,-1.07435 175.07466,-1.24146 163.71858,-0.25506 171.66993,-0.35011 176.19246,-2.1063 2.60494,-1.01156 5.88594,-3.20551 7.29109,-4.87544 1.40516,-1.66994 2.87384,-2.7175 3.26374,-2.32791 0.38989,0.38958 0.86795,4.50525 1.06235,9.14594 l 0.35346,8.4376 -3.85346,3.59253 c -2.1194,1.97589 -6.77845,5.00422 -10.35345,6.72963 l -6.5,3.1371 -173.5,0.0571 c -95.425,0.0314 -175.84666,-0.10404 -178.71479,-0.30104 z m 126.24307,-37.32254 c -7.47899,-1.25037 -13.35998,-3.74287 -20.17443,-8.55037 -11.7916,-8.31882 -16.28138,-17.49466 -17.0983,-34.94408 -0.50948,-10.88268 -0.46335,-11.18648 2.86331,-18.85541 7.94991,-18.32685 23.63471,-27.72912 43.88114,-26.30461 13.61083,0.95764 23.27309,6.30006 31.7084,17.53209 2.34979,3.12886 4.9155,7.71383 5.70157,10.18883 1.68291,5.29869 2.94852,20.03394 1.85178,21.55979 -1.0114,1.40714 -30.0226,3.47322 -48.51175,3.45485 l -14.75,-0.0147 v 2.49712 c 0,3.19619 6.07747,9.97989 11.43179,12.7602 7.75114,4.02489 20.92152,1.81851 29.13501,-4.88089 l 4.0668,-3.31712 4.80524,4.8786 c 2.64288,2.68323 6.2627,5.66349 8.04405,6.62281 l 3.23881,1.74421 -6.45006,4.9437 c -8.33667,6.38971 -15.15111,9.45432 -23.80267,10.70462 -7.88387,1.13935 -9.0164,1.13795 -15.94069,-0.0197 z m 24.08842,-56.10004 c -0.34831,-1.74157 -1.80668,-4.70488 -3.24083,-6.58514 -6.23964,-8.18058 -14.80561,-9.52378 -25.48382,-3.99602 -6.0794,3.14711 -8.7432,6.10499 -10.35453,11.49765 l -0.6723,2.25 h 20.19239 20.19239 z m -148.8667,55.42493 -6.75,-0.34983 -0.011,-39.20431 c -0.006,-21.56236 -0.28471,-40.85966 -0.61925,-42.88288 l -0.60825,-3.67858 9.73115,-0.32142 9.73115,-0.32142 -0.552,4.64207 -0.55199,4.64206 4.86797,-3.2759 c 10.28712,-6.92272 23.74334,-9.27333 33.71175,-5.88897 11.35002,3.85343 19.59605,11.858 22.52494,21.86536 0.77847,2.65988 1.20507,14.43197 1.2637,34.87228 l 0.0885,30.85691 -4.4279,-0.60691 c -2.43535,-0.3338 -7.29011,-0.60691 -10.78834,-0.60691 h -6.36043 l -0.0327,-21.75 c -0.05,-33.22285 -1.00882,-37.5809 -9.30588,-42.29609 -7.92544,-4.504 -21.1067,-0.70786 -25.31931,7.29183 -1.46089,2.77422 -1.7782,7.27401 -2.15102,30.50426 l -0.43734,27.25 -3.62686,-0.19586 c -1.99478,-0.10772 -6.66437,-0.35328 -10.37687,-0.54569 z m 321.34415,-1.83195 c -7.61434,-2.59337 -21.09415,-9.96604 -21.09415,-11.53727 0,-0.48556 2.18577,-3.02177 4.85726,-5.63603 2.6715,-2.61426 5.3342,-5.64312 5.91712,-6.73079 1.01902,-1.9014 1.39009,-1.80782 9.63035,2.42861 7.71358,3.96566 9.39661,4.44309 16.83288,4.7751 8.60826,0.38433 12.03699,-0.57851 14.15912,-3.97612 2.45518,-3.93083 -2.66646,-7.31329 -16.39673,-10.82881 -12.0704,-3.09052 -20.21954,-7.14797 -24.03713,-11.96806 -3.92014,-4.94957 -6.97211,-12.74542 -6.93475,-17.71385 0.0438,-5.81912 5.5156,-14.95114 11.34244,-18.9295 11.58736,-7.91142 29.77235,-9.62284 42.09755,-3.96187 6.89727,3.16792 16.53189,10.14007 16.53189,11.96338 0,0.68557 -2.84218,4.06341 -6.31595,7.5063 l -6.31595,6.25981 -2.60185,-2.04661 c -11.07809,-8.71403 -28.75009,-9.46389 -31.83468,-1.3508 -2.1777,5.72779 0.75549,7.84489 17.12333,12.35919 13.53609,3.73328 19.92742,6.95397 24.57511,12.38375 4.68414,5.47235 5.89048,9.92286 4.47664,16.51539 -2.31647,10.80133 -9.45986,18.25703 -20.74686,21.65391 -7.81601,2.35228 -22.54937,1.80295 -31.26564,-1.16573 z m -119.57167,-0.6765 c -0.22811,-0.6875 -2.20113,-6.06766 -4.38449,-11.95591 -2.18336,-5.88825 -5.17198,-14.88825 -6.64139,-20 -1.46941,-5.11175 -4.37568,-13.79408 -6.45838,-19.29408 -2.08271,-5.5 -5.55753,-15.00388 -7.72183,-21.11974 l -3.93509,-11.11973 11.02357,-0.69754 c 9.52471,-0.6027 11.18429,-0.47775 12.20559,0.91895 1.41606,1.93659 6.4798,17.77202 9.37865,29.32912 1.14656,4.57108 3.03794,10.85894 4.20307,13.97303 l 2.11841,5.66196 2.30503,-7.97302 c 2.87904,-9.95856 10.00392,-31.29994 11.34198,-33.97303 0.55062,-1.1 1.44928,-3.2375 1.99701,-4.75 0.91004,-2.51293 1.47215,-2.76539 6.52064,-2.92857 3.03861,-0.0982 6.49969,-0.21072 7.69128,-0.25 1.95083,-0.0643 2.98834,2.36775 10.42112,24.42857 4.54002,13.475 8.29008,23.39871 8.33347,22.05271 0.12718,-3.94576 8.84724,-28.83497 13.24437,-37.80271 l 4.04521,-8.25 h 10.39465 c 7.84928,0 10.39465,0.31756 10.39465,1.29684 0,2.74398 -12.35586,37.248 -21.91679,61.20315 -2.63418,6.6 -5.39475,14.37872 -6.1346,17.28604 l -1.34518,5.28604 -8.4377,-0.28604 -8.43771,-0.28604 -2.34976,-7 c -1.29238,-3.85 -4.40592,-14.17166 -6.91898,-22.93701 -5.33524,-18.60884 -5.79249,-19.68159 -7.23454,-16.97288 -3.52232,6.61622 -16.22474,42.59969 -16.22474,45.96151 0,1.94525 -16.83451,2.13633 -17.47752,0.19838 z"
       id="path1" />
    <path
       style="fill:#ffffff;stroke-width:0.780256"
       d="m 376.21433,535.0741 c -10.54819,0.71406 -22.23597,3.35818 -29.52323,11.59107 -3.62828,5.29801 -8.13045,11.72394 -5.59285,18.43202 1.84503,10.00125 8.96005,18.8565 18.84806,21.82582 9.49714,4.45616 20.41418,6.47526 28.70792,13.15615 3.40489,3.58356 -0.6495,8.42313 -4.84612,8.12411 -8.21809,0.88633 -17.04437,0.95076 -24.00353,-4.21369 -3.90334,-1.78814 -7.04523,-5.79249 -11.21618,-6.61541 -3.76778,4.43588 -6.72755,9.71257 -10.98606,13.86935 -2.86293,2.51118 0.13383,5.58467 2.72148,6.62182 12.04728,8.60752 26.93046,13.93083 41.84454,11.75381 13.14361,-1.10307 26.31665,-9.61273 29.33883,-23.04802 3.71057,-10.84906 -2.64452,-23.09662 -13.04337,-27.35314 -10.31888,-5.20174 -22.14248,-6.90252 -32.23432,-12.48105 -2.93408,-3.65233 1.01113,-9.31694 5.52732,-8.70015 7.90813,-0.26537 16.35308,-1.02896 23.29345,3.60706 3.83377,3.75984 7.1225,-0.1538 10.25635,-2.55969 2.21613,-2.14765 8.73274,-4.74771 5.7312,-8.69449 -7.72891,-8.74672 -18.54961,-14.96357 -30.41626,-15.24547 -1.46724,-0.0886 -2.9379,-0.10844 -4.40723,-0.0701 z"
       id="path2" />
    <path
       style="fill:#ffffff;stroke-width:0.780256"
       d="m 476.79723,534.31823 c -19.28231,0.47272 -38.1069,12.43289 -45.69373,30.36292 -4.01278,7.57219 -2.21412,16.62765 -1.33192,24.76245 1.6859,11.55391 7.83035,22.34435 17.52832,29.00357 8.10442,6.3707 17.84233,11.33701 28.43343,10.78066 22.34493,0.99468 42.91324,-16.71067 46.73629,-38.47974 2.94125,-15.35667 0.12542,-33.24779 -12.53134,-43.69279 -8.89651,-8.28095 -20.95826,-13.05067 -33.14105,-12.73707 z m 2.31486,22.82248 c 9.37594,-0.16133 17.38135,6.76168 21.90354,14.47283 1.96113,10.28354 -0.222,22.12601 -8.6268,29.13613 -5.84333,6.20428 -15.51191,6.66785 -23.28596,4.59926 -9.70779,-3.1298 -17.56692,-12.72509 -16.11259,-23.28271 -0.63534,-7.3583 2.2266,-14.93725 8.52361,-19.15803 4.99433,-3.81852 11.41482,-5.79867 17.5982,-5.76748 z"
       id="path3" />
    <path
       style="fill:#ffffff;stroke-width:0.780256"
       d="m 595.4723,535.70501 c -10.20261,0.69638 -19.84059,5.38588 -27.55583,11.92786 -2.0731,-2.27546 0.21207,-8.36017 -3.13278,-9.5311 -5.54369,-0.0446 -11.29894,-1.27308 -16.66164,-1.16999 -2.31433,6.19213 -1.02118,13.36303 -1.90614,19.88444 -1.16596,23.79867 -2.28348,47.81603 -1.69492,71.5335 7.7053,0.15967 15.73994,0.49343 23.365,-0.15393 0.76682,-18.24236 -1.14376,-37.03331 3.24141,-54.83429 3.06028,-5.82668 7.53236,-12.19288 14.197,-14.04461 8.95272,-1.37329 18.08717,0.12562 26.76491,1.73577 2.34601,-2.89357 0.60041,-7.50577 1.21153,-10.96016 -1.04436,-3.90382 2.50196,-10.85225 -2.63484,-12.28447 -4.74852,-1.93869 -10.13173,-2.04794 -15.1937,-2.10302 z"
       id="path4" />
    <path
       style="fill:#ffffff;stroke-width:0.780256"
       d="m 648.25233,520.98835 c -2.76517,1.367 -0.58591,5.77386 -1.05761,8.16983 -0.0277,3.21162 0.92277,7.22662 0.65987,10.02598 -5.93847,0.48224 -12.31354,-1.32212 -17.93979,-0.0701 -1.29341,5.72013 -1.52772,11.93609 -0.51204,17.69291 2.82085,3.90413 8.8073,1.51253 12.81631,2.25756 7.05862,-2.26436 4.98946,4.78884 5.34413,9.36782 0.73719,13.00221 -0.35596,26.21681 1.72236,39.09277 3.95312,10.15012 11.50025,20.53464 23.11203,21.96297 8.96362,0.67449 18.69336,0.60242 26.89901,-3.45019 3.01262,-2.70844 -0.44428,-7.25308 -0.70371,-10.49918 -1.48599,-3.99816 -2.06956,-8.4238 -3.10613,-12.39797 -3.24863,-0.642 -6.07923,3.09109 -9.49413,2.78424 -5.32747,1.06066 -11.53741,-0.52193 -13.80839,-5.94945 -1.74542,-13.17286 -0.68221,-26.68807 -1.24963,-40.00183 13.99387,-1.3408 28.15904,-1.33498 42.24354,-1.89425 1.81444,-4.54234 0.25592,-10.45134 0.77568,-15.51826 1.98415,-6.93215 -6.12747,-4.03789 -10.16314,-4.59467 -10.9185,0 -21.837,0 -32.7555,0 -1.59254,-4.97863 0.12811,-10.88669 -2.47944,-15.37347 -6.76842,-0.49632 -13.62697,-0.40225 -20.30342,-1.60471 z"
       id="path5" />
    <path
       style="fill:#ffffff;stroke-width:0.780256"
       d="m 711.52315,487.74367 c -4.42925,2.18641 -7.56325,7.09222 -13.02662,7.2387 -31.13431,1.23568 -62.36088,0.77747 -93.53131,1.17408 -84.69926,0.52177 -169.43864,0.52741 -254.11377,1.11639 -8.02749,3.86334 -15.08978,11.35882 -15.72398,20.52439 12.19592,1.86435 24.85639,0.50294 37.22521,1.04237 106.74416,0.34394 213.51803,0.43836 320.2447,0.35051 7.56239,-3.97408 15.81123,-7.72882 21.46465,-14.24424 -0.71385,-5.59447 -0.18534,-11.57371 -1.74491,-16.97361 -0.21712,-0.19392 -0.51381,-0.26146 -0.79397,-0.22859 z"
       id="path6" />
    <path
       style="fill:#ffffff;stroke-width:0.780256"
       d="m 531.79307,393.08584 c -5.75927,0.30475 -11.74323,0.2146 -17.32564,1.2862 5.54837,17.24104 12.51842,34.29719 17.89679,51.71441 3.83469,10.88915 6.70451,22.32064 11.99675,32.58522 4.96983,1.19746 10.56514,1.11244 15.58226,0.0838 3.54983,-3.21683 2.96783,-8.95294 5.1706,-13.01504 4.27618,-11.42775 7.44617,-23.46347 13.31323,-34.21329 5.81575,13.40304 8.76641,28.14364 13.46993,42.07616 0.7959,3.42191 2.06562,7.42596 6.52108,5.88366 4.2976,-0.44124 9.2378,0.89241 13.13481,-0.65529 3.60902,-15.40213 10.59317,-29.80636 15.68963,-44.78701 4.36559,-12.78395 10.11654,-25.24588 13.08535,-38.43367 -1.2671,-2.59417 -5.5725,-1.05268 -7.96488,-1.74837 -4.38683,0.10987 -9.11128,-0.90199 -13.27271,0.0979 -7.05539,14.39804 -12.7408,29.45131 -17.09248,44.87995 -6.31104,-14.22832 -10.12153,-29.77647 -16.617,-43.97625 -3.95204,-2.35613 -9.24835,-1.11176 -13.63772,-0.6492 -4.06507,2.00983 -4.31003,7.79013 -6.35848,11.41872 -4.53346,11.91003 -7.99936,24.45794 -12.02172,36.3689 -5.9362,-15.24542 -8.48662,-31.82189 -15.10679,-46.84735 -1.21212,-2.58636 -4.12102,-2.05659 -6.46301,-2.06951 z"
       id="path7" />
    <path
       style="fill:#ffffff;stroke-width:0.780256"
       d="m 472.98586,410.81837 c -9.63442,0.75051 -19.65601,7.17688 -22.08947,16.92332 3.0071,2.47196 9.10554,0.29547 13.25063,1.02866 8.73255,-0.49011 17.76646,0.99543 26.33516,-0.89607 2.79318,-2.1128 -0.73703,-5.93744 -1.66414,-8.2186 -3.44871,-5.16692 -9.45597,-9.12097 -15.83218,-8.83731 z"
       id="path8" />
    <path
       style="fill:#ffffff;stroke-width:0.780256"
       d="m 471.39487,411.19478 c -8.71643,-0.0196 -16.50176,6.64621 -20.12054,14.20005 -1.35948,2.99349 2.20301,4.09724 4.53027,3.5284 11.50138,0.0203 23.13374,0.72272 34.56633,-0.42414 3.07718,-2.68879 -0.41238,-7.30343 -2.09846,-9.88426 -3.29193,-4.93421 -8.90291,-8.37127 -14.99097,-7.43681 -0.62887,0.006 -1.25775,0.0112 -1.88663,0.0168 z"
       id="path9" />
    <path
       style="fill:#ffffff;stroke-width:0.780256"
       d="m 471.84748,392.07395 c -15.15753,-0.34804 -29.98016,8.10412 -37.03624,21.59266 -2.74114,5.34667 -6.53372,10.57761 -5.29308,16.90351 -0.46405,12.08358 0.41092,25.23154 8.63964,34.86006 9.72919,10.71083 24.14213,17.30527 38.65651,16.95783 10.77317,-1.15886 21.20822,-4.90326 29.74728,-11.67244 1.60877,-1.74673 5.818,-2.99834 5.34105,-5.78067 -5.08371,-3.8733 -10.29228,-7.67464 -14.55055,-12.49019 -4.18181,1.46393 -7.63046,5.69574 -12.27227,7.01468 -9.0118,3.84955 -20.88096,3.67455 -27.64117,-4.3295 -2.12408,-2.21808 -5.01713,-4.96227 -4.82021,-8.19878 9.91244,-2.03607 20.33059,-0.89062 30.44369,-1.77996 10.41865,-0.76403 21.09398,-0.51622 31.30472,-2.78728 3.89475,-2.84683 1.20049,-8.64575 1.28843,-12.6135 -1.46551,-20.54284 -20.54125,-37.71092 -41.04127,-37.63967 -0.92138,-0.0414 -1.84441,-0.0414 -2.76653,-0.0367 z m 1.53156,19.51249 c 8.32474,-0.69442 16.1365,6.03795 17.38202,14.09946 0.80326,3.66563 -4.34654,2.24988 -6.35939,2.84519 -10.74087,0.21076 -21.82187,0.7745 -32.4309,-0.75739 -0.86221,-4.54407 3.88819,-8.28978 6.79066,-11.23142 4.02751,-3.705 9.37559,-5.0352 14.61761,-4.95584 z"
       id="path10" />
    <path
       style="fill:#ffffff;stroke-width:0.780256"
       d="m 380.37316,392.49303 c -9.62834,-0.79512 -18.43486,3.56616 -26.24908,8.68687 -2.41991,2.02928 -0.46054,-2.9149 -0.76058,-3.93373 1.98344,-6.18322 -6.69036,-2.767 -10.13935,-3.62695 -4.54026,-0.15534 -11.11372,-1.33912 -8.87722,5.48609 0.29241,26.83751 -0.009,53.70214 0.86588,80.52187 3.82524,2.02227 9.00682,0.94411 13.31616,1.65651 2.40581,-0.50087 7.76364,2.32577 7.73093,-1.9232 0.98648,-18.01816 -0.17912,-36.28432 2.13047,-54.13482 2.79595,-7.36808 11.51834,-11.10773 18.99584,-10.09693 8.01694,-0.77021 14.29929,7.21337 14.23458,14.89605 1.43595,16.35442 0.57499,32.83937 0.82805,49.25645 4.80626,2.04877 11.07374,0.90495 16.44454,1.87611 3.60986,0.68465 7.82739,1.47445 6.21539,-3.90903 -0.43333,-19.9878 0.85267,-40.09749 -1.32024,-60.00503 -2.09012,-12.63242 -14.06734,-21.45237 -25.80026,-24.50948 -2.52311,-0.33244 -5.07792,-0.22254 -7.61511,-0.24078 z"
       id="path11" />
    <path
       style="fill:#ffffff;stroke-width:0.780256"
       d="m 682.87771,390.81213 c -14.48507,0.16341 -30.80474,6.90343 -35.80948,21.58199 -2.96725,8.64704 1.89735,17.89316 7.50844,24.31747 10.43819,10.18716 26.54786,9.3456 38.2051,17.21744 2.13197,4.05192 -2.62309,7.67245 -6.49806,7.0924 -7.15936,-0.14213 -14.82102,1.53952 -21.01626,-2.96894 -3.92312,-0.9012 -8.33112,-6.03081 -12.01238,-4.26508 -3.22171,4.86307 -8.49421,8.52978 -11.10153,13.64979 4.54878,4.51132 11.13224,6.77944 16.81285,9.70475 13.20955,5.29561 29.18832,6.8183 42.17875,0.12922 9.39168,-5.28868 16.76596,-16.51048 14.63894,-27.5284 -3.62727,-11.00295 -14.85484,-16.9238 -25.42199,-19.58336 -6.75876,-2.70933 -14.9237,-3.35477 -20.511,-8.34278 -2.46681,-3.22984 1.16872,-7.97409 4.46361,-9.03847 9.53656,-2.14168 19.78779,0.0341 27.312,6.20699 4.31039,2.41597 6.93745,-3.84147 9.69377,-6.00736 1.32305,-2.44307 5.70414,-4.69639 4.57028,-7.77208 -8.85285,-8.22893 -20.60012,-14.70691 -33.01304,-14.39358 z"
       id="path12" />
  </g>
</svg>
